<svg xmlns="http://www.w3.org/2000/svg" viewBox="0 0 284.5 155.91"><defs><style>.cls-1{fill:#213067;}.cls-2{fill:#ca4f1c;}.cls-3{fill:#fff;}</style></defs><title>logo-95.5fm</title><g id="Camada_2" data-name="Camada 2"><g id="Camada_1-2" data-name="Camada 1"><path class="cls-1" d="M57.16,155.91A19.84,19.84,0,0,1,47,153.11a19.62,19.62,0,0,1-9.47-18.56h-6A23.59,23.59,0,0,1,8,107.4l1-6.94-.29-.35A25,25,0,0,1,3.31,79.62L6.57,61.11a34.2,34.2,0,0,1-6-26.76C4,15.09,21.83,0,41.21,0a33.34,33.34,0,0,1,30.9,19.27h187.6a24.81,24.81,0,0,1,18.77,8.44h0a25,25,0,0,1,5.76,19.9,1.85,1.85,0,0,1,0,.23l-9.58,60.5a29.7,29.7,0,0,1-29.22,25.38H94.07L69.32,151.89A20.68,20.68,0,0,1,57.16,155.91Z"/><path class="cls-2" d="M268.36,36.51a11.27,11.27,0,0,0-8.66-3.83H72.39a3.44,3.44,0,1,0,0,6.87H259.7A4.5,4.5,0,0,1,263.17,41a4.61,4.61,0,0,1,1,3.77l-9.59,60.61a9.71,9.71,0,0,1-9.16,8.06H91.61a13.21,13.21,0,0,0-7.75,2.61l-26,19.09L59.56,123a7.7,7.7,0,0,0-1.76-6.16,7.62,7.62,0,0,0-5.8-2.59H31.49a3.5,3.5,0,0,1-2.69-1.12,3.62,3.62,0,0,1-.75-2.93l2.05-15A15.34,15.34,0,0,0,42.21,83.14l4.48-25.41A28.84,28.84,0,0,0,61.42,37.87a20.84,20.84,0,0,0-4.29-17.36,20.33,20.33,0,0,0-15.93-7.1c-12.85,0-25.15,10.44-27.42,23.27A20.87,20.87,0,0,0,18.06,54a19.46,19.46,0,0,0,2.88,2.77L16.5,81.94a11.65,11.65,0,0,0,2.39,9.56,10.88,10.88,0,0,0,4.35,3.11l-2,14.65a10.42,10.42,0,0,0,2.38,8.4,10.26,10.26,0,0,0,7.87,3.48H52a.82.82,0,0,1,.62.22.93.93,0,0,1,.14.71L50.9,135.28a6.22,6.22,0,0,0,2.94,6.32,6.45,6.45,0,0,0,3.31.9,7.15,7.15,0,0,0,4.23-1.42l26.55-19.49a6.33,6.33,0,0,1,3.68-1.27h153.8a16.44,16.44,0,0,0,16-14l9.6-60.6A11.42,11.42,0,0,0,268.36,36.51ZM23.27,83.14l3.21-18.2a28.28,28.28,0,0,0,11.9.36L35.45,81.94a8.05,8.05,0,0,1-2.8,4.68,7.94,7.94,0,0,1-5,2,4.49,4.49,0,0,1-3.53-1.5A4.71,4.71,0,0,1,23.27,83.14Zm.06-33.52a14.1,14.1,0,0,1-2.78-11.75c1.71-9.7,11-17.59,20.65-17.59a13.59,13.59,0,0,1,10.67,4.64,14.12,14.12,0,0,1,2.78,11.76c-1.71,9.7-11,17.59-20.65,17.59A13.57,13.57,0,0,1,23.33,49.62Z"/><path class="cls-3" d="M90.21,68c0,.48,0,1-.08,1.63S90,71,89.85,71.84s-.32,2-.54,3.28-.49,2.86-.8,4.72a34.3,34.3,0,0,1-2.3,8,14.22,14.22,0,0,1-3.53,5,12.18,12.18,0,0,1-5,2.56,26.28,26.28,0,0,1-6.45.72,50.62,50.62,0,0,1-6-.31,30.61,30.61,0,0,1-4-.72,2,2,0,0,1-.67-.29.65.65,0,0,1-.26-.59v-.26l.77-4.49c.14-.86.61-1.22,1.4-1.08q1.8.3,4.38.51t4.86.21a12.49,12.49,0,0,0,3.2-.36,5,5,0,0,0,2.24-1.24,6.6,6.6,0,0,0,1.47-2.32,16.54,16.54,0,0,0,.88-3.62l0-.36q-1,.21-2.79.42a30.78,30.78,0,0,1-3.4.2,15.52,15.52,0,0,1-4.24-.56,10.08,10.08,0,0,1-3.43-1.73,8.33,8.33,0,0,1-2.32-2.92,9.45,9.45,0,0,1-.85-4.18,18,18,0,0,1,1.16-6.68A13.17,13.17,0,0,1,67,60.8a14.23,14.23,0,0,1,5.08-3,20.32,20.32,0,0,1,6.63-1q5.43,0,8.44,2.94T90.21,68Zm-8.51.26a7.6,7.6,0,0,0-.31-2.35,3.75,3.75,0,0,0-.85-1.44,2.91,2.91,0,0,0-1.32-.75,6.32,6.32,0,0,0-1.65-.21,6,6,0,0,0-2.95.67,5.68,5.68,0,0,0-1.93,1.78,7.49,7.49,0,0,0-1.08,2.58,13.44,13.44,0,0,0-.34,3.07c0,1.59.44,2.65,1.32,3.2a6.12,6.12,0,0,0,3.32.83,20,20,0,0,0,2.46-.18c.94-.12,1.73-.23,2.34-.34.21-1.1.43-2.23.65-3.4A18.77,18.77,0,0,0,81.7,68.23Z"/><path class="cls-3" d="M123.81,58.22l-.93,5.16a1.25,1.25,0,0,1-.44.69,1.12,1.12,0,0,1-.75.29h-14l-1.91,7.12h1.49a27.66,27.66,0,0,1,5.65.52,12.05,12.05,0,0,1,4.26,1.67,7.89,7.89,0,0,1,2.69,3,9.52,9.52,0,0,1,.92,4.39,18.12,18.12,0,0,1-1.13,6.76,11.8,11.8,0,0,1-3.28,4.67,13.62,13.62,0,0,1-5.18,2.71,24.45,24.45,0,0,1-6.82.88,34.33,34.33,0,0,1-5.08-.39,28.69,28.69,0,0,1-4.78-1.11,2.23,2.23,0,0,1-.59-.31.71.71,0,0,1-.28-.62v-.2l.72-4.08a1.25,1.25,0,0,1,.41-.67,1.12,1.12,0,0,1,.72-.26h.11c.79.1,1.62.19,2.5.26l2.56.18,2.29.13c.71,0,1.3,0,1.78,0,2.58,0,4.42-.6,5.5-1.81s1.63-3,1.63-5.52a3.84,3.84,0,0,0-.34-1.7,2.34,2.34,0,0,0-1.11-1.06,6.12,6.12,0,0,0-2-.54,24.76,24.76,0,0,0-3.12-.16h-8a.51.51,0,0,1-.41-.18.61.61,0,0,1-.16-.44v-.15l5-19.25a1.28,1.28,0,0,1,.44-.7,1.11,1.11,0,0,1,.75-.28h20.07c.59,0,.88.27.88.82v.16Z"/><path class="cls-3" d="M134.75,88.05l-1.13,6.5a1.36,1.36,0,0,1-.47.72,1.15,1.15,0,0,1-.77.31h-6a.77.77,0,0,1-.88-.87v-.16l1.14-6.5a1.26,1.26,0,0,1,.46-.7,1.23,1.23,0,0,1,.78-.28h6c.59,0,.88.27.88.82Z"/><path class="cls-3" d="M171.24,58.22l-.93,5.16a1.25,1.25,0,0,1-.44.69,1.12,1.12,0,0,1-.75.29h-14l-1.91,7.12h1.49a27.66,27.66,0,0,1,5.65.52,12.05,12.05,0,0,1,4.26,1.67,7.89,7.89,0,0,1,2.69,3,9.52,9.52,0,0,1,.92,4.39,18.12,18.12,0,0,1-1.13,6.76,11.8,11.8,0,0,1-3.28,4.67,13.62,13.62,0,0,1-5.18,2.71,24.45,24.45,0,0,1-6.82.88,34.33,34.33,0,0,1-5.08-.39,28.34,28.34,0,0,1-4.77-1.11,2.14,2.14,0,0,1-.6-.31.71.71,0,0,1-.28-.62v-.2l.72-4.08a1.25,1.25,0,0,1,.41-.67,1.12,1.12,0,0,1,.73-.26h.1c.79.1,1.62.19,2.5.26l2.56.18,2.29.13c.71,0,1.3,0,1.78,0q3.88,0,5.5-1.81t1.63-5.52a3.84,3.84,0,0,0-.34-1.7,2.34,2.34,0,0,0-1.11-1.06,6.12,6.12,0,0,0-2-.54,24.76,24.76,0,0,0-3.12-.16h-8a.51.51,0,0,1-.41-.18.61.61,0,0,1-.16-.44v-.15l5-19.25a1.28,1.28,0,0,1,.44-.7,1.11,1.11,0,0,1,.75-.28h20.07c.59,0,.88.27.88.82v.16Z"/><path class="cls-3" d="M203.34,58.27a.36.36,0,0,1,0,.1.35.35,0,0,0,0,.16l-.88,4.8a1.44,1.44,0,0,1-.44.72,1,1,0,0,1-.74.31H190.75a4,4,0,0,0-2.68.75,4.66,4.66,0,0,0-1.24,2.78L186,72.56h13.37a.73.73,0,0,1,.82.82v.21l-.82,4.87a1.37,1.37,0,0,1-.47.71,1.15,1.15,0,0,1-.77.31H184.76l-2.63,15.07a1.3,1.3,0,0,1-.47.72,1.13,1.13,0,0,1-.77.31h-6.71a.72.72,0,0,1-.82-.82v-.21l4.69-26.68A16.61,16.61,0,0,1,180,62a9.79,9.79,0,0,1,3.26-3.35,11.33,11.33,0,0,1,4.25-1.53,33.38,33.38,0,0,1,5-.36c1.37,0,2.58,0,3.63.08s2,.11,2.74.18,1.44.15,2,.23l1.49.23C203,57.6,203.34,57.85,203.34,58.27Z"/><path class="cls-3" d="M244.68,58.68a.5.5,0,0,1,0,.18.48.48,0,0,0,0,.18l-6.35,35.82a.85.85,0,0,1-.38.57,1.27,1.27,0,0,1-.6.15h-6.81c-.41,0-.62-.27-.62-.82v-.21L233.64,73v-.16c0-.17-.07-.25-.21-.25s-.26.12-.46.36l-6.15,8.51a2,2,0,0,1-1.7.88H221a1.36,1.36,0,0,1-1.39-.88L216.45,73q-.15-.36-.36-.36c-.17,0-.27.13-.31.41L212,94.55a1.57,1.57,0,0,1-.38.72.86.86,0,0,1-.65.31h-6.81a1.08,1.08,0,0,1-.52-.13.44.44,0,0,1-.26-.43v-.16L209.74,59a2.11,2.11,0,0,1,.75-1.29,2.24,2.24,0,0,1,1.42-.46h4.49a2,2,0,0,1,1.29.38,2.59,2.59,0,0,1,.72,1l5.32,14.71c.17.45.32.67.46.67a.36.36,0,0,0,.29-.18,5.75,5.75,0,0,1,.39-.49l10.47-14.71a3,3,0,0,1,2.53-1.39h5.21C244.15,57.24,244.68,57.72,244.68,58.68Z"/></g></g></svg>