<svg width="714" height="252" viewBox="0 0 714 252" fill="none" xmlns="http://www.w3.org/2000/svg">
<path d="M138.332 86.3553C137.525 85.0102 136.449 83.9341 135.103 83.1271C133.757 82.32 132.412 81.782 130.797 81.782C129.182 81.5129 127.567 81.5129 125.953 81.5129C124.338 81.5129 122.723 81.5129 120.839 81.782C119.224 82.051 117.61 82.589 115.995 83.1271C114.38 83.9341 113.034 85.0102 111.689 86.3553C110.343 87.7004 109.267 89.5835 108.19 92.0047L83.6992 150.92C83.6992 151.189 83.4301 151.458 83.4301 151.727C83.4301 152.534 83.9683 152.803 84.7757 152.803H98.5013C99.0396 152.803 99.5778 152.534 99.847 152.265C100.116 151.996 100.385 151.458 100.654 150.92L106.844 135.317H126.491L127.029 150.92C127.029 151.458 127.298 151.727 127.567 152.265C127.836 152.534 128.375 152.803 128.644 152.803H141.562C142.1 152.803 142.639 152.534 142.908 152.265C143.177 151.996 143.446 151.458 143.446 150.92L139.947 91.7357C139.678 89.5835 139.14 87.7004 138.332 86.3553ZM111.958 122.404L122.454 96.04C122.723 94.9639 123.261 94.6949 124.069 94.6949C124.607 94.6949 124.876 94.6949 124.876 94.9639C124.876 95.2329 125.145 95.502 125.145 96.04L126.222 122.404H111.958Z" fill="white"/>
<path d="M208.306 114.602C210.997 110.298 212.074 105.187 212.074 99.5373C212.074 96.309 211.536 93.6188 210.19 91.1976C208.844 89.0455 207.23 87.1623 205.077 85.5482C202.923 84.2031 200.232 83.1271 197.272 82.32C194.311 81.5129 190.813 81.2439 187.314 81.2439C185.699 81.2439 183.815 81.2439 181.931 81.2439C180.047 81.2439 178.433 81.5129 176.549 81.5129C174.934 81.5129 173.319 81.782 171.704 81.782C170.09 82.051 168.744 82.051 167.668 82.32C166.053 82.589 164.976 82.858 164.169 83.6651C163.361 84.2031 162.823 85.2792 162.554 86.8933L151.251 150.651V150.92C151.251 151.996 151.789 152.534 152.865 152.534H165.245C165.784 152.534 166.322 152.265 166.591 151.996C167.129 151.727 167.398 151.189 167.398 150.651L171.704 126.439C172.512 126.439 173.588 126.439 174.934 126.439C176.28 126.439 177.356 126.439 178.433 126.439C178.702 126.439 179.24 126.439 179.509 126.439C179.778 126.439 180.047 126.439 180.317 126.439L188.929 150.382C189.198 150.92 189.198 151.458 189.467 151.727C189.736 151.996 190.005 152.265 190.544 152.265H204.269C204.807 152.265 205.346 151.996 205.615 151.727C205.884 151.458 206.153 151.189 206.153 150.651C206.153 150.651 206.153 150.382 205.884 149.844L196.195 122.942C201.578 121.866 205.615 118.907 208.306 114.602ZM194.85 107.608C194.042 109.222 193.235 110.567 191.889 111.374C190.544 112.181 188.929 112.988 187.045 113.257C185.161 113.526 183.008 113.795 180.586 113.795C180.317 113.795 179.778 113.795 179.24 113.795C178.702 113.795 177.894 113.795 177.356 113.795C176.549 113.795 176.011 113.795 175.472 113.795C174.934 113.795 174.396 113.795 174.127 113.795L177.356 95.502C177.625 95.502 178.164 95.502 178.702 95.502C179.509 95.502 180.047 95.502 180.855 95.502C181.662 95.502 182.47 95.502 183.008 95.502C183.815 95.502 184.354 95.502 184.623 95.502C188.39 95.502 191.082 96.04 192.966 96.8471C194.85 97.6541 195.657 99.5373 195.657 101.958C195.926 104.111 195.388 105.994 194.85 107.608Z" fill="white"/>
<path d="M264.823 86.3553C264.016 85.0102 262.939 83.9341 261.594 83.1271C260.248 82.32 258.902 81.782 257.288 81.782C255.673 81.5129 254.058 81.5129 252.443 81.5129C250.829 81.5129 249.214 81.5129 247.33 81.782C245.715 82.051 244.1 82.589 242.486 83.1271C240.871 83.9341 239.525 85.0102 238.179 86.3553C236.834 87.7004 235.757 89.5835 234.681 92.0047L210.19 150.92C210.19 151.189 209.921 151.458 209.921 151.727C209.921 152.534 210.459 152.803 211.266 152.803H224.992C225.53 152.803 226.069 152.534 226.338 152.265C226.607 151.996 226.876 151.458 227.145 150.92L233.335 135.317H252.982L253.52 150.92C253.52 151.458 253.789 151.727 254.058 152.265C254.327 152.534 254.865 152.803 255.135 152.803H268.053C268.591 152.803 269.129 152.534 269.398 152.265C269.668 151.996 269.937 151.458 269.937 150.92L266.169 92.0047C266.169 89.5835 265.631 87.7004 264.823 86.3553ZM238.449 122.404L248.945 96.04C249.214 94.9639 249.752 94.6949 250.559 94.6949C251.098 94.6949 251.367 94.6949 251.367 94.9639C251.367 95.2329 251.636 95.502 251.636 96.04L252.712 122.404H238.449Z" fill="white"/>
<path d="M334.797 114.602C337.488 110.298 338.565 105.187 338.565 99.5373C338.565 96.309 338.026 93.6188 336.681 91.1976C335.335 89.0455 333.72 87.1623 331.567 85.5482C329.414 84.2031 326.723 83.1271 323.763 82.32C320.802 81.5129 317.303 81.2439 313.805 81.2439C312.19 81.2439 310.306 81.2439 308.422 81.2439C306.538 81.2439 304.923 81.5129 303.04 81.5129C301.425 81.5129 299.81 81.782 298.195 81.782C296.58 82.051 295.235 82.051 294.158 82.32C292.544 82.589 291.467 82.858 290.66 83.6651C289.852 84.2031 289.314 85.2792 289.045 86.8933L277.741 150.651V150.92C277.741 151.996 278.28 152.534 279.356 152.534H291.736C292.274 152.534 292.813 152.265 293.082 151.996C293.62 151.727 293.889 151.189 293.889 150.651L298.195 126.439C299.003 126.439 300.079 126.439 301.425 126.439C302.77 126.439 303.847 126.439 304.924 126.439C305.193 126.439 305.731 126.439 306 126.439C306.269 126.439 306.538 126.439 306.807 126.439L315.42 150.382C315.689 150.92 315.689 151.458 315.958 151.727C316.227 151.996 316.496 152.265 317.034 152.265H330.76C331.298 152.265 331.836 151.996 332.106 151.727C332.375 151.458 332.644 151.189 332.644 150.651C332.644 150.651 332.644 150.382 332.375 149.844L322.686 122.942C328.069 121.866 332.106 118.907 334.797 114.602ZM321.34 107.608C320.533 109.222 319.726 110.567 318.38 111.374C317.034 112.181 315.42 112.988 313.536 113.257C311.652 113.526 309.499 113.795 307.077 113.795C306.807 113.795 306.269 113.795 305.731 113.795C305.193 113.795 304.385 113.795 303.847 113.795C303.04 113.795 302.501 113.795 301.963 113.795C301.425 113.795 300.887 113.795 300.617 113.795L303.847 95.502C304.116 95.502 304.654 95.502 305.193 95.502C306 95.502 306.538 95.502 307.346 95.502C308.153 95.502 308.96 95.502 309.499 95.502C310.306 95.502 310.844 95.502 311.113 95.502C314.881 95.502 317.573 96.04 319.456 96.8471C321.34 97.6541 322.148 99.5373 322.148 101.958C322.148 104.111 321.879 105.994 321.34 107.608Z" fill="white"/>
<path d="M391.314 86.3553C390.507 85.0102 389.43 83.9341 388.084 83.1271C386.739 82.32 385.393 81.782 383.778 81.782C382.164 81.5129 380.549 81.5129 378.934 81.5129C377.319 81.5129 375.704 81.5129 373.821 81.782C372.206 82.051 370.591 82.589 368.976 83.1271C367.362 83.9341 366.016 85.0102 364.67 86.3553C363.325 87.7004 362.248 89.5835 361.172 92.0047L336.681 150.92C336.681 151.189 336.412 151.458 336.412 151.727C336.412 152.534 336.95 152.803 337.757 152.803H351.483C352.021 152.803 352.559 152.534 352.829 152.265C353.098 151.996 353.367 151.458 353.636 150.92L359.826 135.317H379.203L379.741 150.92C379.741 151.458 380.011 151.727 380.28 152.265C380.549 152.534 381.087 152.803 381.356 152.803H394.274C394.813 152.803 395.351 152.534 395.62 152.265C395.889 151.996 396.158 151.458 396.158 150.92L392.391 92.0047C392.66 89.5835 392.121 87.7004 391.314 86.3553ZM364.67 122.404L375.166 96.04C375.435 94.9639 375.974 94.6949 376.781 94.6949C377.319 94.6949 377.588 94.6949 377.588 94.9639C377.588 95.2329 377.858 95.502 377.858 96.04L378.934 122.404H364.67Z" fill="white"/>
<path d="M470.438 82.051H459.135C458.596 82.051 458.058 82.32 457.789 82.589C457.251 82.858 456.982 83.3961 456.982 83.9341L449.715 124.287C449.715 124.556 449.446 124.825 449.446 124.825L449.177 125.094C449.177 125.094 448.908 124.825 448.639 124.287L432.222 85.0102C431.683 83.9341 430.876 83.1271 430.069 82.589C428.992 82.32 428.185 82.051 427.108 82.051H419.842C418.765 82.051 417.958 82.32 417.15 83.1271C416.343 83.9341 415.805 84.7412 415.536 85.8173L404.232 150.92V151.189C404.232 152.265 404.77 152.803 405.847 152.803H417.15C417.689 152.803 418.227 152.534 418.496 152.265C419.034 151.996 419.303 151.458 419.303 150.92L426.032 112.45C426.032 111.912 426.301 111.643 426.57 111.643C426.839 111.643 427.108 111.912 427.377 112.45L443.256 149.844C443.794 151.189 444.602 151.996 445.409 152.265C446.486 152.534 447.293 152.803 448.369 152.803H456.443C457.52 152.803 458.327 152.534 459.135 151.727C459.942 150.92 460.48 150.113 460.48 149.037L472.053 83.9341V83.6651C472.053 82.589 471.515 82.051 470.438 82.051Z" fill="white"/>
<path d="M532.338 83.9341C532.069 83.6651 531.8 83.6651 531.53 83.3961C529.916 83.1271 527.224 82.589 523.995 82.051C520.765 81.5129 516.728 81.2439 511.884 81.2439C508.116 81.2439 504.348 81.5129 500.58 82.32C497.082 83.1271 493.583 84.4722 490.623 86.6243C487.662 88.7765 484.971 91.7357 482.549 95.771C480.396 99.8063 478.512 104.918 477.435 111.643L475.282 123.48C474.744 125.901 474.744 128.322 474.744 130.744C474.744 135.048 475.551 138.545 476.897 141.504C478.243 144.464 480.127 146.885 482.28 148.768C484.433 150.651 486.855 151.996 489.546 152.803C492.237 153.61 494.66 153.879 497.082 153.879C501.926 153.879 505.963 153.61 509.462 153.341C512.96 152.803 516.19 152.534 518.612 151.996C519.42 151.996 519.958 151.727 520.227 151.458C520.496 151.189 520.765 150.651 520.765 149.844L526.417 117.831V117.562C526.417 116.485 525.879 115.947 524.802 115.947H512.691C512.153 115.947 511.615 116.216 511.346 116.485C510.807 116.755 510.538 117.293 510.538 117.831L506.77 139.621C504.617 139.89 501.926 139.89 499.235 139.89C498.158 139.89 497.082 139.621 496.005 139.352C494.929 139.083 494.121 138.545 493.314 137.738C492.507 136.931 491.968 135.855 491.43 134.779C490.892 133.434 490.892 131.82 490.892 129.936C490.892 129.129 490.892 128.053 491.161 126.977C491.161 125.901 491.43 124.825 491.699 123.48L493.852 111.643C494.391 108.415 495.198 105.725 496.005 103.573C497.082 101.42 498.158 99.8063 499.235 98.7302C500.58 97.6541 501.926 96.578 503.541 96.309C505.156 95.771 507.04 95.771 508.924 95.771C512.96 95.771 516.728 95.771 520.227 96.04C523.726 96.309 526.417 96.309 528.839 96.578H529.108C529.646 96.578 529.916 96.578 530.185 96.309C530.454 96.04 530.723 95.771 530.723 95.2329L532.607 85.2792V85.0102C532.607 84.2031 532.607 84.2031 532.338 83.9341Z" fill="white"/>
<path d="M599.351 83.6651C599.351 83.1271 599.082 82.858 598.813 82.589C598.544 82.32 598.005 82.32 597.467 82.32H585.087C584.549 82.32 584.011 82.589 583.741 82.858C583.203 83.1271 582.934 83.6651 582.934 84.2031L575.398 126.439C574.86 128.86 574.322 131.013 573.784 132.627C573.245 134.241 572.169 135.855 571.092 136.931C570.016 138.007 568.67 138.814 567.325 139.352C565.71 139.89 564.095 140.159 561.673 140.159C558.443 140.159 556.021 139.621 554.406 138.276C553.061 136.931 552.253 134.779 552.253 132.089C552.253 130.474 552.522 128.591 552.792 126.439L560.327 84.2031V83.9341C560.327 82.858 559.789 82.32 558.712 82.32H546.332C545.794 82.32 545.256 82.589 544.987 82.858C544.449 83.1271 544.179 83.6651 544.179 84.2031L536.644 126.439C536.375 127.784 536.106 128.86 536.106 129.936C536.106 131.013 536.106 132.089 536.106 133.165C536.106 136.662 536.644 139.89 537.989 142.58C539.066 145.271 540.681 147.423 542.834 149.037C544.987 150.651 547.409 151.996 550.1 152.803C552.792 153.61 556.021 153.879 559.251 153.879C563.018 153.879 566.786 153.61 570.016 153.072C573.515 152.534 576.475 151.189 579.435 149.306C582.127 147.423 584.818 144.733 586.702 140.966C588.855 137.469 590.47 132.627 591.546 126.708L599.082 84.4722V83.6651H599.351Z" fill="white"/>
<path d="M655.061 68.062H641.604C640.797 68.062 640.528 68.062 639.989 68.331C639.72 68.6 639.182 68.869 638.644 69.4071L627.879 80.4369C627.61 80.7059 627.34 81.2439 627.34 81.5129C627.34 81.782 627.34 81.782 627.61 82.051C626.802 82.32 625.995 82.589 625.187 82.858C623.573 83.6651 622.227 84.7412 620.881 86.0863C619.536 87.4314 618.459 89.3145 617.383 91.7357L592.892 150.651C592.892 150.92 592.623 151.189 592.623 151.458C592.623 152.265 593.161 152.534 593.968 152.534H607.694C608.232 152.534 608.771 152.265 609.04 151.996C609.309 151.727 609.578 151.189 609.847 150.651L616.037 135.048H635.414L635.953 150.651C635.953 151.189 636.222 151.458 636.491 151.996C636.76 152.265 637.298 152.534 637.567 152.534H650.485C651.024 152.534 651.562 152.265 651.831 151.996C652.1 151.727 652.369 151.189 652.369 150.651L648.602 91.7357C648.602 89.5835 648.063 87.7004 647.256 86.0863C646.449 84.7412 645.372 83.6651 644.026 82.858C642.95 82.32 641.873 81.782 640.797 81.5129C641.066 81.2439 641.335 81.2439 641.604 80.7059L655.33 69.138C655.599 68.869 655.868 68.6 655.868 68.331C656.137 68.331 655.868 68.062 655.061 68.062ZM621.15 122.404L631.646 96.04C631.916 94.9639 632.454 94.6949 633.261 94.6949C633.8 94.6949 634.069 94.6949 634.069 94.9639C634.069 95.2329 634.338 95.502 634.338 96.04L635.414 122.404H621.15Z" fill="white"/>
<path d="M145.599 20.1765C144.522 18.2933 143.177 16.9482 141.293 15.6031C139.409 14.5271 137.525 13.451 135.103 12.9129C132.681 12.3749 129.989 12.1059 127.298 12.1059C125.952 12.1059 124.607 12.1059 122.992 12.1059C121.646 12.1059 120.032 12.1059 118.686 12.3749C117.34 12.3749 115.995 12.6439 114.649 12.6439C113.303 12.6439 112.227 12.9129 111.42 13.182C110.074 13.451 109.266 13.72 108.728 14.258C108.19 14.7961 107.652 15.6031 107.383 16.9482L98.5013 68.062V68.331C98.5013 69.138 99.0396 69.6761 99.847 69.6761H109.805C110.343 69.6761 110.612 69.4071 110.881 69.138C111.15 68.869 111.42 68.6 111.689 68.062L114.918 48.6926C115.726 48.6926 116.533 48.6926 117.609 48.6926C118.686 48.6926 119.493 48.6926 120.301 48.6926C120.57 48.6926 120.839 48.6926 121.108 48.6926C121.377 48.6926 121.646 48.6926 121.646 48.6926L128.375 67.7929C128.644 68.331 128.644 68.6 128.913 68.869C128.913 69.138 129.182 69.4071 129.72 69.4071H140.755C141.293 69.4071 141.562 69.4071 141.831 69.138C142.1 68.869 142.1 68.6 142.1 68.331C142.1 68.331 142.1 68.062 141.831 67.7929L134.026 46.2714C138.602 44.6573 141.831 42.2361 143.715 38.7388C145.868 35.2416 146.675 31.2063 146.675 26.6329C147.214 24.2118 146.675 21.7906 145.599 20.1765ZM133.219 33.3584C132.681 34.7035 131.873 35.7796 130.797 36.3176C129.72 37.1247 128.375 37.3937 127.029 37.9318C125.414 38.2008 123.799 38.4698 121.916 38.4698C121.646 38.4698 121.377 38.4698 120.839 38.4698C120.301 38.4698 119.763 38.4698 119.224 38.4698C118.686 38.4698 118.148 38.4698 117.609 38.4698C117.071 38.4698 116.802 38.4698 116.533 38.4698L119.224 23.9427C119.493 23.9427 119.763 23.9427 120.301 23.9427C120.839 23.9427 121.377 23.9427 121.916 23.9427C122.454 23.9427 122.992 23.9427 123.799 23.9427C124.338 23.9427 124.876 23.9427 125.145 23.9427C128.106 23.9427 130.259 24.2118 131.873 25.0188C133.219 25.8259 134.026 27.171 134.026 29.0541C134.026 30.3992 133.757 32.0133 133.219 33.3584Z" fill="white"/>
<path d="M195.388 1.88313H184.623C184.084 1.88313 183.546 1.88313 183.277 2.15215C183.008 2.42117 182.739 2.69019 182.47 3.22823L173.858 12.1059C173.588 12.3749 173.319 12.6439 173.319 12.9129C173.319 12.9129 173.319 12.9129 173.319 13.182C172.781 13.182 172.243 13.451 171.435 13.72C170.09 14.258 169.013 15.0651 167.937 16.1412C166.86 17.2173 166.053 18.8314 165.245 20.4455L145.599 67.5239C145.599 67.7929 145.33 68.062 145.33 68.331C145.33 68.869 145.599 69.138 146.406 69.138H157.172C157.71 69.138 157.979 69.138 158.248 68.869C158.517 68.6 158.786 68.331 159.055 67.7929L163.9 55.418H179.509L180.047 67.7929C180.047 68.331 180.047 68.6 180.317 68.869C180.586 69.138 180.855 69.138 181.393 69.138H191.62C192.158 69.138 192.427 68.869 192.697 68.6C192.966 68.331 193.235 68.062 193.235 67.5239L190.274 20.7145C190.274 18.8314 189.736 17.4863 189.198 16.4102C188.391 15.3341 187.583 14.5271 186.776 13.989C185.968 13.451 185.161 13.182 184.354 13.182C184.623 13.182 184.623 12.9129 184.892 12.9129L195.926 3.76627C196.195 3.49725 196.464 3.22823 196.464 2.95921C196.195 2.15215 195.926 1.88313 195.388 1.88313ZM168.206 45.1953L176.549 24.2118C176.818 23.4047 177.356 23.1357 177.894 23.1357C178.164 23.1357 178.433 23.1357 178.433 23.4047C178.433 23.6737 178.433 23.9427 178.433 24.2118L179.24 45.1953H168.206Z" fill="white"/>
<path d="M242.755 16.9482C240.871 15.3341 238.718 14.258 236.296 13.451C233.873 12.6439 230.913 12.1059 227.683 12.1059C226.069 12.1059 224.454 12.1059 222.839 12.1059C221.224 12.1059 219.609 12.3749 218.264 12.3749C216.918 12.3749 215.573 12.6439 214.227 12.6439C212.881 12.6439 212.074 12.9129 211.266 13.182C210.459 13.182 209.921 13.451 209.383 13.989C208.844 14.5271 208.575 15.0651 208.575 15.8722L199.694 66.1788C199.694 66.4478 199.694 66.7169 199.694 66.9859C199.694 67.5239 199.963 68.062 200.232 68.331C200.501 68.6 201.04 68.869 201.578 68.869C202.385 69.138 203.193 69.138 204.538 69.4071C205.615 69.4071 206.96 69.6761 208.306 69.6761C209.652 69.6761 211.266 69.9451 212.881 69.9451C214.496 69.9451 216.111 69.9451 217.726 69.9451C222.032 69.9451 225.53 69.4071 228.76 68.6C231.989 67.7929 234.681 66.1788 237.103 64.2957C239.525 62.4126 241.409 59.9914 242.755 56.7631C244.369 53.8039 245.446 50.0376 246.253 45.7333L247.868 36.0486C248.137 34.1655 248.406 32.5514 248.406 30.6682C248.406 27.709 247.868 25.0188 247.061 22.8667C245.984 20.4455 244.639 18.5624 242.755 16.9482ZM234.681 36.0486L233.066 45.7333C232.528 48.4235 231.989 50.5757 231.182 52.1898C230.375 53.8039 229.567 55.149 228.222 56.2251C227.145 57.3012 225.799 57.8392 224.454 58.3773C223.108 58.6463 221.224 58.9153 219.609 58.9153C218.533 58.9153 217.726 58.9153 216.649 58.9153C215.573 58.9153 214.765 58.9153 214.227 58.9153L220.417 23.4047C220.955 23.4047 221.763 23.4047 222.839 23.4047C223.916 23.4047 224.992 23.4047 225.799 23.4047C227.145 23.4047 228.491 23.6737 229.567 23.9427C230.644 24.2118 231.72 24.7498 232.528 25.2878C233.335 25.8259 233.873 26.902 234.412 27.978C234.95 29.0541 235.219 30.3992 235.219 32.0133C235.219 33.0894 234.95 34.4345 234.681 36.0486Z" fill="white"/>
<path d="M271.821 12.9129H261.594C260.786 12.9129 260.248 13.451 259.979 14.258L250.559 67.7929V68.062C250.559 68.331 250.559 68.6 250.828 68.869C251.098 69.138 251.367 69.138 251.636 69.138H261.863C262.401 69.138 262.67 68.869 262.939 68.6C263.208 68.331 263.478 68.062 263.478 67.5239L272.897 13.989C273.166 13.182 272.628 12.9129 271.821 12.9129Z" fill="white"/>
<path d="M321.879 22.3286C320.802 19.9074 319.456 18.0243 317.842 16.6792C316.227 15.0651 314.074 13.989 311.921 13.451C309.768 12.6439 307.346 12.3749 304.654 12.3749C301.425 12.3749 298.464 12.6439 295.504 13.451C292.544 14.258 290.121 15.6031 287.699 17.4863C285.277 19.3694 283.393 21.7906 281.509 25.0188C279.894 28.2471 278.549 32.0133 277.741 36.8557L276.127 46.0023C275.858 47.8855 275.588 49.7686 275.588 51.6518C275.588 54.88 276.127 57.5702 276.934 59.7223C278.011 62.1435 279.356 64.0267 280.971 65.6408C282.586 67.2549 284.739 68.331 286.892 69.138C289.045 69.9451 291.736 70.2141 294.158 70.2141C297.657 70.2141 300.887 69.6761 303.847 68.869C306.807 68.062 309.499 66.7169 311.652 64.5647C313.805 62.6816 315.958 59.9914 317.303 57.0322C318.918 54.0729 319.995 50.0376 320.802 45.7333L322.417 36.5867C322.686 35.5106 322.686 34.4345 322.955 33.6274C322.955 32.5514 322.955 31.7443 322.955 30.6682C323.224 27.44 322.955 24.4808 321.879 22.3286ZM310.037 33.8965C310.037 34.7035 309.768 35.5106 309.768 36.5867L308.153 45.7333C307.346 50.3067 306 53.8039 304.116 55.6871C302.232 57.8392 299.541 58.6463 296.58 58.6463C294.158 58.6463 292.274 58.1082 290.929 57.0322C289.583 55.9561 289.045 53.8039 289.045 51.1137C289.045 49.4996 289.314 47.6165 289.583 45.7333L291.198 36.5867C292.005 31.7443 293.351 28.5161 295.235 26.3639C297.119 24.4808 299.541 23.4047 302.77 23.4047C305.462 23.4047 307.346 23.9427 308.422 25.2878C309.768 26.6329 310.306 28.5161 310.306 31.4753C310.306 32.2823 310.037 33.0894 310.037 33.8965Z" fill="white"/>
<path d="M482.549 222.748C482.549 223.286 482.549 223.824 482.549 224.362C482.549 224.9 482.28 225.707 482.28 226.784C482.011 227.591 482.011 228.936 481.741 230.281C481.472 231.626 481.203 233.24 480.934 235.123C480.396 238.351 479.588 241.311 478.512 243.194C477.435 245.346 476.359 246.96 474.744 248.305C473.398 249.65 471.515 250.457 469.631 250.995C467.747 251.533 465.594 251.802 462.902 251.802C460.48 251.802 458.327 251.802 456.712 251.533C455.098 251.264 453.752 250.995 452.675 250.726C452.406 250.726 452.137 250.457 451.868 250.457C451.599 250.457 451.599 250.188 451.599 249.919V249.65L452.406 245.077C452.675 244.27 452.945 243.732 453.752 244.001C455.098 244.27 456.443 244.27 458.327 244.539C460.211 244.808 461.826 244.808 463.441 244.808C464.786 244.808 465.863 244.808 466.67 244.539C467.478 244.27 468.285 244.001 469.092 243.194C469.631 242.656 470.169 241.849 470.707 240.773C470.976 239.696 471.514 238.62 471.514 237.006V236.737C470.707 237.006 469.9 237.006 468.554 237.275C467.478 237.544 466.132 237.544 465.055 237.544C463.441 237.544 462.095 237.275 460.749 237.006C459.404 236.737 458.327 235.93 457.251 235.123C456.174 234.316 455.367 233.24 454.828 232.164C454.29 231.088 454.021 229.474 454.021 227.86C454.021 225.169 454.29 223.017 455.098 220.865C455.905 218.982 456.981 217.099 458.596 215.754C459.942 214.409 461.826 213.333 463.71 212.794C465.863 211.987 468.016 211.718 470.438 211.718C474.206 211.718 477.166 212.795 479.05 214.678C481.741 216.292 482.549 219.251 482.549 222.748ZM473.937 223.017C473.937 221.941 473.937 221.134 473.668 220.596C473.398 220.058 473.129 219.52 472.86 218.982C472.591 218.713 472.053 218.444 471.514 218.175C470.976 217.906 470.438 217.906 469.9 217.906C468.823 217.906 467.747 218.175 466.939 218.713C466.132 219.251 465.594 219.789 465.055 220.596C464.517 221.403 464.248 222.21 463.979 223.286C463.71 224.362 463.71 225.438 463.71 226.514C463.71 228.129 464.248 229.205 465.055 229.743C465.863 230.281 467.208 230.55 468.554 230.55C469.361 230.55 470.169 230.55 470.976 230.281C472.053 230.281 472.86 230.012 473.398 230.012C473.668 228.936 473.937 227.591 473.937 226.514C473.668 225.438 473.937 224.093 473.937 223.017Z" fill="#FF4A00"/>
<path d="M517.266 212.795L516.19 218.175C516.19 218.444 515.921 218.713 515.652 218.982C515.383 219.251 515.113 219.251 514.844 219.251H500.58L498.697 226.515H500.311C502.464 226.515 504.348 226.784 506.232 227.053C507.847 227.322 509.462 227.86 510.538 228.667C511.615 229.474 512.691 230.55 513.23 231.626C513.768 232.971 514.306 234.316 514.306 236.199C514.306 238.889 514.037 241.311 513.23 243.194C512.422 245.077 511.346 246.691 509.731 248.036C508.385 249.381 506.501 250.188 504.348 250.726C502.195 251.264 500.042 251.533 497.351 251.533C495.736 251.533 493.852 251.533 492.237 251.264C490.354 250.995 488.739 250.726 487.393 250.188C487.124 250.188 486.855 249.919 486.855 249.919C486.586 249.65 486.586 249.65 486.586 249.381V249.112L487.393 244.808C487.393 244.539 487.662 244.27 487.931 244.001C488.201 243.732 488.47 243.732 488.739 243.732C489.546 243.732 490.354 244.001 491.43 244.001C492.237 244.001 493.314 244.001 494.121 244.27C494.929 244.27 495.736 244.27 496.544 244.27C497.351 244.27 497.889 244.27 498.427 244.27C501.119 244.27 503.003 243.732 504.079 242.387C505.156 241.042 505.694 239.158 505.694 236.737C505.694 235.93 505.694 235.392 505.425 234.854C505.156 234.316 504.887 234.047 504.348 233.778C503.81 233.509 503.003 233.24 502.195 233.24C501.388 233.24 500.311 232.971 498.966 232.971H489.815C489.546 232.971 489.546 232.971 489.277 232.702C489.277 232.702 489.008 232.433 489.008 232.164L494.121 212.256C494.121 211.987 494.391 211.718 494.66 211.449C494.929 211.18 495.198 211.18 495.467 211.18H516.19C516.997 211.718 517.266 211.987 517.266 212.795Z" fill="#FF4A00"/>
<path d="M528.57 243.463L527.493 250.188C527.493 250.457 527.224 250.726 526.955 250.995C526.686 251.264 526.417 251.264 526.148 251.264H519.958C519.42 251.264 519.15 250.995 519.15 250.457V250.188L520.227 243.463C520.227 243.194 520.496 242.925 520.765 242.656C521.034 242.387 521.303 242.387 521.573 242.387H527.763C528.032 242.387 528.57 242.656 528.57 243.463Z" fill="#FF4A00"/>
<path d="M565.979 212.795L564.902 218.175C564.902 218.444 564.633 218.713 564.364 218.982C564.095 219.251 563.826 219.251 563.557 219.251H549.024L547.14 226.515H548.755C550.908 226.515 552.792 226.784 554.675 227.053C556.29 227.322 557.905 227.86 558.982 228.667C560.058 229.474 561.135 230.55 561.673 231.626C562.211 232.971 562.749 234.316 562.749 236.199C562.749 238.889 562.48 241.311 561.673 243.194C560.865 245.077 559.789 246.691 558.174 248.036C556.828 249.381 554.945 250.188 552.792 250.726C550.639 251.264 548.486 251.533 545.794 251.533C544.179 251.533 542.296 251.533 540.681 251.264C538.797 250.995 537.182 250.726 535.836 250.188C535.567 250.188 535.298 249.919 535.298 249.919C535.029 249.65 535.029 249.65 535.029 249.381V249.112L535.567 244.808C535.567 244.539 535.836 244.27 536.106 244.001C536.375 243.732 536.644 243.732 536.913 243.732C537.72 243.732 538.528 244.001 539.604 244.001C540.412 244.001 541.488 244.001 542.296 244.27C543.103 244.27 543.91 244.27 544.718 244.27C545.525 244.27 546.063 244.27 546.602 244.27C549.293 244.27 551.177 243.732 552.253 242.387C553.33 241.042 553.868 239.158 553.868 236.737C553.868 235.93 553.868 235.392 553.599 234.854C553.33 234.316 553.061 234.047 552.522 233.778C551.984 233.509 551.177 233.24 550.369 233.24C549.562 233.24 548.486 232.971 547.14 232.971H538.797C538.528 232.971 538.528 232.971 538.259 232.702C538.259 232.702 537.989 232.433 537.989 232.164L543.103 212.256C543.103 211.987 543.372 211.718 543.641 211.449C543.91 211.18 544.179 211.18 544.449 211.18H565.171C565.71 211.718 565.979 211.987 565.979 212.795Z" fill="#FF4A00"/>
<path d="M599.082 212.795C598.813 213.064 598.813 213.064 599.082 212.795L598.005 217.906C598.005 218.175 597.736 218.444 597.467 218.713C597.198 218.982 596.929 218.982 596.66 218.982H585.894C584.549 218.982 583.741 219.251 583.203 219.789C582.665 220.327 582.127 221.134 581.858 222.748L581.05 227.591H594.776C595.314 227.591 595.583 227.86 595.583 228.398V228.667L594.776 233.778C594.776 234.047 594.507 234.316 594.238 234.585C593.968 234.854 593.699 234.854 593.43 234.854H579.704L577.013 250.457C577.013 250.726 576.744 250.995 576.475 251.264C576.206 251.533 575.937 251.533 575.668 251.533H568.67C568.132 251.533 567.863 251.264 567.863 250.726V250.188L572.707 222.748C573.245 220.327 573.784 218.175 574.591 216.83C575.398 215.216 576.744 214.14 577.821 213.333C579.166 212.525 580.512 211.987 582.127 211.718C583.741 211.449 585.356 211.449 587.24 211.449C588.586 211.449 589.931 211.449 591.008 211.449C592.084 211.449 592.892 211.449 593.699 211.718C594.507 211.718 595.045 211.987 595.852 211.987C596.391 211.987 596.929 212.256 597.467 212.256C598.544 211.987 599.082 212.256 599.082 212.795Z" fill="#FF4A00"/>
<path d="M641.604 213.333C641.604 213.333 641.335 213.333 641.604 213.333C641.604 213.602 641.604 213.602 641.604 213.602L635.145 250.457C635.145 250.726 634.876 250.995 634.876 250.995C634.607 250.995 634.607 251.264 634.338 251.264H627.34C626.802 251.264 626.802 250.995 626.802 250.457V250.188L630.57 228.129V227.86C630.57 227.591 630.57 227.591 630.301 227.591C630.301 227.591 630.032 227.591 629.763 227.86L623.573 236.737C623.034 237.275 622.496 237.544 621.958 237.544H617.652C616.844 237.544 616.575 237.275 616.306 236.737L613.077 227.86C613.077 227.591 612.807 227.591 612.807 227.591C612.538 227.591 612.538 227.86 612.538 228.129L608.77 250.188C608.77 250.457 608.501 250.726 608.501 250.995C608.232 251.264 607.963 251.264 607.963 251.264H600.966C600.697 251.264 600.697 251.264 600.427 251.264C600.158 251.264 600.158 250.995 600.158 250.726V250.457L606.617 213.602C606.617 213.064 606.887 212.525 607.425 212.256C607.963 211.987 608.232 211.718 608.77 211.718H613.346C613.884 211.718 614.422 211.718 614.691 211.987C614.96 212.256 615.23 212.525 615.499 213.064L620.881 228.129C621.15 228.667 621.15 228.936 621.42 228.936C621.42 228.936 621.689 228.936 621.689 228.667C621.689 228.667 621.958 228.398 621.958 228.129L632.723 213.064C633.261 211.987 634.338 211.718 635.414 211.718H640.797C640.797 211.718 641.604 212.256 641.604 213.333Z" fill="#FF4A00"/>
<path d="M708.887 43.0431C704.85 38.4698 699.198 35.7796 692.739 35.7796H341.256C337.757 35.7796 334.797 38.7388 334.797 42.2361C334.797 45.7333 337.757 48.6926 341.256 48.6926H692.739C695.43 48.6926 697.583 49.7686 699.198 51.3828C700.813 53.2659 701.351 55.6871 701.082 58.3773L683.319 171.096C682.243 179.167 674.438 186.162 666.364 186.162H145.599C140.485 186.162 135.372 187.776 131.066 191.004L82.6227 226.515L85.8522 203.917C86.3905 199.613 85.314 195.577 82.6227 192.349C79.9314 189.39 76.1636 187.507 71.8575 187.507H33.6412C31.4881 187.507 29.8733 186.7 28.5277 185.355C27.4512 184.009 26.9129 182.126 27.1821 179.974L30.9499 151.996C35.7942 151.189 40.1003 149.037 43.8681 145.809C48.9815 141.504 52.2111 135.855 53.2876 129.667L61.8997 82.589C76.4327 74.5184 86.6596 60.7984 89.3509 45.7333C91.504 33.6275 88.5435 22.0596 81.277 13.451C74.2797 4.57333 63.7836 0 51.6728 0C27.7203 0 4.84432 19.3694 0.53825 43.3122C-1.61478 55.418 1.34564 66.9859 8.61213 75.5945C10.2269 77.4777 11.8417 79.0918 13.9947 80.7059L5.65171 127.515C4.57519 133.972 6.18997 140.428 10.2269 145.271C12.3799 147.961 15.0712 149.844 18.3008 151.189L14.533 178.36C13.7256 184.278 15.3404 189.659 18.839 193.963C22.6069 198.267 27.7203 200.42 33.372 200.42H71.5884C71.8575 200.42 72.3958 200.42 72.6649 200.958C72.934 201.227 72.934 201.765 72.934 202.303L69.4353 226.784C68.628 231.626 70.781 236.199 74.8179 238.62C76.7018 239.696 78.8549 240.235 81.0079 240.235C83.6992 240.235 86.6596 239.427 88.8127 237.544L138.332 201.227C140.485 199.613 142.908 198.806 145.061 198.806H665.557C680.09 198.806 693.277 187.507 695.161 172.711L712.923 59.9914C714.807 53.8039 712.923 47.6165 708.887 43.0431ZM18.3008 129.667L24.2216 96.04C31.219 97.9231 38.7546 97.9231 46.2902 96.578L40.9076 127.515C40.3694 130.744 38.4855 133.972 35.7942 136.124C33.1029 138.545 29.6042 139.89 26.6438 139.89C23.9525 139.89 21.5303 138.814 20.1847 137.2C18.5699 135.317 17.7625 132.627 18.3008 129.667ZM18.5699 67.5239C13.7256 61.8745 11.8417 54.0729 13.4565 45.7333C16.686 27.709 33.9103 12.9129 51.9419 12.9129C60.0158 12.9129 67.0132 15.8722 71.8575 21.5216C76.7018 27.171 78.5857 34.9726 76.971 43.3122C73.7414 61.3365 56.5171 76.1326 38.4855 76.1326C30.1425 76.1326 23.1451 72.9043 18.5699 67.5239Z" fill="#FF4A00"/>
</svg>
