<?xml version="1.0" standalone="no"?>
<!DOCTYPE svg PUBLIC "-//W3C//DTD SVG 20010904//EN"
 "http://www.w3.org/TR/2001/REC-SVG-20010904/DTD/svg10.dtd">
<svg version="1.0" xmlns="http://www.w3.org/2000/svg"
 width="400.000000pt" height="400.000000pt" viewBox="0 0 400.000000 400.000000"
 preserveAspectRatio="xMidYMid meet">
<metadata>
Created by potrace 1.14, written by Peter Selinger 2001-2017
</metadata>
<g transform="translate(0.000000,400.000000) scale(0.100000,-0.100000)"
fill="#000000" stroke="none">
<path d="M2015 3879 c-391 -79 -738 -337 -928 -689 -40 -74 -102 -240 -121
-321 -24 -109 -29 -359 -7 -449 50 -208 152 -380 300 -502 l33 -26 -17 -89
c-9 -48 -19 -99 -21 -113 -3 -14 -11 -61 -20 -105 -8 -45 -16 -95 -18 -113 -3
-17 -7 -39 -10 -49 -3 -10 -8 -36 -11 -58 -4 -22 -8 -51 -10 -65 -4 -25 -25
-145 -65 -360 -43 -234 -46 -256 -45 -316 5 -172 116 -354 267 -434 31 -17 59
-34 61 -38 2 -4 -1 -38 -8 -75 -6 -37 -9 -70 -6 -72 2 -3 73 -5 158 -5 139 0
153 2 154 18 1 22 8 71 14 98 3 16 15 24 42 29 50 9 150 55 217 100 122 81
225 213 276 353 25 69 32 99 44 182 2 14 7 41 11 60 4 19 8 44 10 55 3 20 13
83 20 120 2 11 6 31 9 45 3 14 8 41 11 60 2 19 7 49 10 65 3 17 12 66 20 110
8 44 17 96 20 115 8 51 24 141 30 175 3 17 12 67 20 113 9 46 17 93 19 105 3
12 5 29 5 38 1 10 35 38 79 65 91 57 80 49 167 122 96 81 187 181 250 277 44
67 106 177 110 195 1 3 8 21 17 40 17 39 37 98 42 126 3 10 12 46 21 79 25 88
30 328 9 425 -67 318 -255 540 -559 661 -44 17 -134 42 -200 55 -77 15 -311
11 -400 -7z m317 -303 c82 -11 128 -26 217 -69 66 -33 201 -149 201 -173 0 -8
4 -14 9 -14 16 0 82 -147 95 -213 42 -197 -33 -480 -176 -668 -73 -95 -106
-129 -212 -217 -106 -89 -311 -181 -436 -196 -19 -3 -35 -5 -35 -6 0 -6 -183
-5 -195 1 -8 4 -28 9 -45 12 -67 11 -141 42 -235 99 -60 36 -164 151 -194 214
-51 107 -69 204 -63 329 7 131 9 143 47 247 59 162 150 288 310 431 16 15 35
27 40 27 6 0 10 4 10 8 0 9 113 77 175 106 99 45 200 73 300 83 33 3 61 6 62
7 3 3 79 -2 125 -8z m-750 -2062 c106 -21 328 -26 446 -11 71 10 70 12 52 -84
-6 -30 -13 -70 -16 -89 -3 -19 -10 -60 -15 -90 -6 -30 -12 -71 -15 -90 -3 -19
-7 -46 -9 -60 -23 -123 -33 -187 -39 -233 -21 -160 -52 -236 -125 -307 -45
-43 -113 -84 -163 -97 -13 -4 -55 -6 -94 -6 -59 0 -78 4 -105 24 -79 56 -114
123 -105 198 5 45 7 56 26 156 5 28 12 66 15 85 3 19 8 46 10 60 3 14 7 36 10
50 3 14 7 36 10 50 2 14 7 41 10 60 3 19 12 71 20 115 8 44 17 96 21 115 3 19
7 42 9 50 2 8 6 39 10 67 4 29 11 50 16 47 5 -3 19 -7 31 -10z"/>
</g>
</svg>
