<svg width="16" height="20" viewBox="0 0 16 20" fill="none" xmlns="http://www.w3.org/2000/svg">
<path d="M2.76903 1.6407L2.76894 1.64064C2.51807 1.47096 2.19877 1.45349 1.93025 1.59545L2.76903 1.6407ZM2.76903 1.6407L14.145 9.33387L14.1451 9.33391M2.76903 1.6407L14.1451 9.33391M14.1451 9.33391C14.3687 9.48511 14.5 9.73367 14.5 10.0004C14.5 10.267 14.3687 10.5156 14.145 10.6669C14.145 10.6669 14.145 10.6669 14.145 10.6669L2.76902 18.3601L2.76888 18.3602M14.1451 9.33391L2.76888 18.3602M2.76888 18.3602C2.63312 18.4521 2.47724 18.5 2.31187 18.5C2.18042 18.5 2.04675 18.4669 1.93036 18.4054M2.76888 18.3602L1.93036 18.4054M1.93036 18.4054C1.66239 18.2637 1.5 17.9924 1.5 17.6936V2.30715C1.5 2.00841 1.66238 1.73717 1.93016 1.5955L1.93036 18.4054Z" fill="#FF4A00" stroke="#FF4A00" stroke-width="3" stroke-linecap="round" stroke-linejoin="round"/>
</svg>
