<svg width="9" height="9" viewBox="0 0 9 9" fill="none" xmlns="http://www.w3.org/2000/svg">
<path d="M8.78226 1.64725C8.64261 1.32643 8.44127 1.03571 8.18948 0.791357C7.9375 0.546275 7.64042 0.351512 7.31438 0.217659C6.9763 0.0783103 6.61368 0.0069837 6.24759 0.00781977C5.73399 0.00781977 5.23289 0.147368 4.79742 0.410959C4.69325 0.474014 4.59428 0.543272 4.50052 0.618731C4.40675 0.543272 4.30779 0.474014 4.20361 0.410959C3.76814 0.147368 3.26704 0.00781977 2.75344 0.00781977C2.38361 0.00781977 2.02523 0.0781108 1.68665 0.217659C1.35953 0.352039 1.06471 0.545339 0.811551 0.791357C0.559436 1.03543 0.358039 1.32623 0.218775 1.64725C0.0739668 1.98114 0 2.33569 0 2.70058C0 3.0448 0.0708415 3.40349 0.211483 3.76839C0.329204 4.07333 0.497974 4.38964 0.713623 4.70905C1.05533 5.21452 1.52517 5.7417 2.10857 6.27612C3.07535 7.16199 4.03275 7.77394 4.07338 7.79875L4.32029 7.95587C4.42967 8.02513 4.57032 8.02513 4.6797 7.95587L4.92661 7.79875C4.96724 7.77291 5.92359 7.16199 6.89141 6.27612C7.47481 5.7417 7.94466 5.21452 8.28637 4.70905C8.50202 4.38964 8.67183 4.07333 8.78851 3.76839C8.92915 3.40349 8.99999 3.0448 8.99999 2.70058C9.00103 2.33569 8.92706 1.98114 8.78226 1.64725Z" fill="#FF4A00"/>
</svg>
