<svg width="81" height="80" viewBox="0 0 81 80" fill="none" xmlns="http://www.w3.org/2000/svg">
<path fill-rule="evenodd" clip-rule="evenodd" d="M40.4981 73.3333C58.9076 73.3333 73.8315 58.4095 73.8315 40C73.8315 21.5905 58.9076 6.66663 40.4981 6.66663C22.0886 6.66663 7.16479 21.5905 7.16479 40C7.16479 58.4095 22.0886 73.3333 40.4981 73.3333Z" fill="#FF4A00" stroke="white" stroke-width="3" stroke-linecap="round" stroke-linejoin="round"/>
<path d="M37.2696 27.2502L37.2695 27.2502C36.7721 26.8913 36.1584 26.8596 35.6382 27.153L37.2696 27.2502ZM37.2696 27.2502L52.7823 38.4403L52.7824 38.4404M37.2696 27.2502L52.7824 38.4404M52.7824 38.4404C53.2386 38.7694 53.5435 39.3446 53.5435 40.0006C53.5435 40.6565 53.2387 41.2317 52.7823 41.5609C52.7823 41.5609 52.7823 41.5609 52.7823 41.5609L37.2696 52.7511L37.2695 52.7512M52.7824 38.4404L37.2695 52.7512M37.2695 52.7512C36.9955 52.9488 36.6895 53.0455 36.3779 53.0455C36.1275 53.0455 35.8703 52.979 35.6384 52.8483L37.2695 52.7512ZM35.6381 52.8482C35.1036 52.5465 34.7253 51.927 34.7253 51.1908V28.8104C34.7253 28.074 35.1037 27.4546 35.6381 27.1531L35.6381 52.8482Z" fill="white" stroke="white" stroke-width="3" stroke-linecap="round" stroke-linejoin="round"/>
</svg>
