<svg width="40" height="58" viewBox="0 0 40 58" fill="none" xmlns="http://www.w3.org/2000/svg">
<g clip-path="url(#clip0_383_7938)">
<path fill-rule="evenodd" clip-rule="evenodd" d="M398 44.7681H35.493C34.2641 44.7681 33.0353 45.2091 31.9181 45.981L20.0766 54.5817L20.8586 49.1787C20.9703 48.1863 20.7469 47.1939 20.0766 46.4221C19.4063 45.6502 18.5126 45.2091 17.3955 45.2091H8.23506C7.78821 45.2091 7.34136 44.9886 7.00622 44.6578C6.67108 44.327 6.55937 43.8859 6.67108 43.4449L7.56479 36.7186C8.68191 36.4981 9.79904 35.9468 10.6927 35.1749C11.9216 34.1825 12.7036 32.749 13.0387 31.3156L15.0495 19.8479C18.6243 17.9734 21.082 14.5551 21.7523 10.9163C22.3109 7.93916 21.6406 5.18251 19.8532 3.08745C18.0658 1.10266 15.4964 0 12.5919 0C6.7828 0 1.19717 4.63118 0.191751 10.4753C-0.366812 13.4525 0.303464 16.2091 2.09087 18.3042C2.426 18.7452 2.87285 19.1863 3.43142 19.5171L1.42059 30.7643C1.08545 32.308 1.5323 33.8517 2.53772 35.0646C3.09628 35.7262 3.76656 36.1673 4.54854 36.4981L3.65484 43.1141C3.43142 44.5475 3.87827 45.8707 4.77197 46.8631C5.66567 47.8555 6.89451 48.4068 8.34677 48.4068H17.6189C17.7306 48.4068 17.8423 48.4068 17.8423 48.5171V48.7376L16.9486 54.692C16.8369 55.9049 17.2838 56.8973 18.2892 57.5589C18.7361 57.7795 19.2946 58 19.7415 58C20.4117 58 21.082 57.7795 21.6406 57.3384L33.8173 48.5171C34.3758 48.1863 34.9344 47.9658 35.493 47.9658H398V44.7681ZM4.43683 31.3156L5.8891 23.1559C7.56479 23.597 9.4639 23.597 11.2513 23.2662L10.0225 30.7643C9.91075 31.5361 9.4639 32.308 8.79362 32.8593C8.12335 33.4106 7.34136 33.7414 6.55937 33.7414C5.8891 33.7414 5.33053 33.5209 4.9954 33.0798C4.43683 32.5285 4.32512 31.9772 4.43683 31.3156ZM4.43683 16.2091C3.3197 14.8859 2.87285 13.0114 3.20799 10.9163C3.98998 6.61597 8.23506 3.08745 12.5919 3.08745C14.6027 3.08745 16.2784 3.85932 17.3955 5.18251C18.6243 6.61597 19.0712 8.38023 18.6243 10.4753C17.8424 14.7757 13.5973 18.4144 9.24047 18.4144C7.34136 18.3042 5.66567 17.5323 4.43683 16.2091Z" fill="#FF4A00"/>
</g>
<defs>
<clipPath id="clip0_383_7938">
<rect width="40" height="58" fill="white"/>
</clipPath>
</defs>
</svg>
