<svg width="24" height="20" viewBox="0 0 24 20" fill="none" xmlns="http://www.w3.org/2000/svg">
<path fill-rule="evenodd" clip-rule="evenodd" d="M1.00013 3.98265C1.00953 2.33829 2.35359 1 4.00008 1H20.0001C21.6468 1 22.991 2.33863 23 3.98327C23.0002 3.99292 23.0002 4.00257 23.0001 4.01222V16C23.0001 17.6523 21.6524 19 20.0001 19H4.00008C2.3478 19 1.00008 17.6523 1.00008 16V4.01225C0.999956 4.00244 0.999975 3.99247 1.00013 3.98265ZM3.00008 5.92066V16C3.00008 16.5477 3.45237 17 4.00008 17H20.0001C20.5478 17 21.0001 16.5477 21.0001 16V5.92066L12.5735 11.8192C12.2292 12.0603 11.7709 12.0603 11.4266 11.8192L3.00008 5.92066ZM3.10666 3.55395C3.32712 3.20056 3.52822 3.05945 4.00008 3H20.0001C20.4598 3.04406 20.6463 3.18033 20.8935 3.55395L12.0001 9.77934L3.10666 3.55395Z" fill="#FF4A00"/>
<path d="M4.00008 3C3.61212 3 3.27204 3.22692 3.10666 3.55395M4.00008 3H20.0001M4.00008 3C3.52822 3.05945 3.32712 3.20056 3.10666 3.55395M3.10666 3.55395L3.71955 3.98297M3.10666 3.55395L12.0001 9.77934L20.8935 3.55395M20.0001 3C20.388 3 20.7281 3.22692 20.8935 3.55395M20.0001 3C20.4598 3.04406 20.6463 3.18033 20.8935 3.55395M20.8935 3.55395L20.2794 3.98386M1.00013 3.98265C1.00953 2.33829 2.35359 1 4.00008 1H20.0001C21.6468 1 22.991 2.33863 23 3.98327C23.0002 3.99292 23.0002 4.00257 23.0001 4.01222V16C23.0001 17.6523 21.6524 19 20.0001 19H4.00008C2.3478 19 1.00008 17.6523 1.00008 16V4.01225C0.999956 4.00244 0.999975 3.99247 1.00013 3.98265ZM3.00008 5.92066V16C3.00008 16.5477 3.45237 17 4.00008 17H20.0001C20.5478 17 21.0001 16.5477 21.0001 16V5.92066L12.5735 11.8192C12.2292 12.0603 11.7709 12.0603 11.4266 11.8192L3.00008 5.92066Z" stroke="#FF4A00" stroke-linecap="round" stroke-linejoin="round"/>
</svg>
