<svg width="3" height="11" viewBox="0 0 3 11" fill="none" xmlns="http://www.w3.org/2000/svg">
<path d="M1.0459 -4.63153e-08C1.36035 -3.25701e-08 1.61556 0.104818 1.81152 0.314453C2.00749 0.528646 2.10547 0.795247 2.10547 1.11426C2.10547 1.43783 2.00749 1.70443 1.81152 1.91406C1.61556 2.12826 1.36035 2.23535 1.0459 2.23535C0.736002 2.23535 0.483073 2.13053 0.287109 1.9209C0.0957031 1.71126 -6.30486e-08 1.44238 -4.87058e-08 1.11426C-3.45622e-08 0.79069 0.0957031 0.524088 0.287109 0.314453C0.483073 0.104818 0.736003 -5.98613e-08 1.0459 -4.63153e-08Z" fill="#FF7300"/>
<path d="M1.0459 4.07422C1.36035 4.07422 1.61556 4.17904 1.81152 4.38867C2.00749 4.60286 2.10547 4.86947 2.10547 5.18848C2.10547 5.51204 2.00749 5.77865 1.81152 5.98828C1.61556 6.20247 1.36035 6.30957 1.0459 6.30957C0.736002 6.30957 0.483073 6.20475 0.287109 5.99512C0.0957029 5.78548 -2.41138e-07 5.5166 -2.26796e-07 5.18848C-2.12652e-07 4.86491 0.0957029 4.59831 0.287109 4.38867C0.483073 4.17904 0.736002 4.07422 1.0459 4.07422Z" fill="#FF7300"/>
<path d="M1.0459 8.14844C1.36035 8.14844 1.61556 8.25325 1.81152 8.46289C2.00749 8.67708 2.10547 8.94368 2.10547 9.2627C2.10547 9.58626 2.00749 9.85286 1.81152 10.0625C1.61556 10.2767 1.36035 10.3838 1.0459 10.3838C0.736002 10.3838 0.483072 10.279 0.287109 10.0693C0.0957027 9.8597 -4.19228e-07 9.59082 -4.04885e-07 9.2627C-3.90742e-07 8.93913 0.0957027 8.67253 0.287109 8.46289C0.483073 8.25325 0.736002 8.14844 1.0459 8.14844Z" fill="#FF7300"/>
</svg>
